<svg width="200" height="200" viewBox="0 0 200 200" xmlns="http://www.w3.org/2000/svg"><g fill="none" fill-rule="evenodd"><ellipse fill="#9FEFFF" cx="42.65" cy="42.26" rx="42.59" ry="42.09"/><path d="M131.08 61.35l.13.23 7.32 12.64 1.7 2.85-1.7-2.85-7.32-12.64-.13-.23-3.52-6.05 1.67-.71c1.77-.86 4.33-2.24 7.65-4.14 5.74-3.29 11.19-3.05 16.35.72a22.34 22.34 0 0 1 4.47 4.38c.68.87 1.2 1.62 1.56 2.25l5.43 9.44c11.89 23.06 19.66 41.5 23.33 55.31 3.66 13.82 6.25 24.95 7.77 33.39l-67.58 38.95c-25.3-28.05-53.14-45.23-83.52-51.53-7.73-23.8 2.85-30.18 31.73-19.15L36.37 55.38a24.1 24.1 0 0 1-.96-2.06 23.72 23.72 0 0 1-1.7-5.97c-.82-5.81 1.06-10.23 5.64-13.27 4.94-2.41 9.74-1.82 14.41 1.79a23.97 23.97 0 0 1 4.36 4.44c.54.7.97 1.32 1.3 1.87l13.44 23.08 12.56 21.58-12.56-21.58 1.56-.9c1.78-.85 4.33-2.23 7.66-4.14 5.73-3.28 11.18-3.04 16.35.72a22.34 22.34 0 0 1 4.46 4.38c.55.7 1 1.31 1.33 1.86L112.28 81l-8.06-13.83-4.5-7.75 1.56-.9c1.77-.85 4.32-2.23 7.65-4.14 5.74-3.28 11.19-3.04 16.35.72a22.34 22.34 0 0 1 4.47 4.38c.55.7.99 1.32 1.33 1.86zm10.05 17.4l-2.63-4.52 2.63 4.52z" fill="#FFF"/><path d="M131 61.12c-.34-.55-.78-1.17-1.33-1.87a22.34 22.34 0 0 0-4.45-4.39c-5.15-3.78-10.58-4.02-16.3-.72-3.32 1.91-5.86 3.3-7.63 4.15l-1.56.9 4.5 7.78 8.02 13.88m-8.02-13.88c-.34-.55-.79-1.17-1.33-1.87a22.34 22.34 0 0 0-4.45-4.4c-5.15-3.77-10.59-4.01-16.3-.72-3.32 1.92-5.86 3.3-7.64 4.16l-1.55.9L85.48 86.7M72.96 65.04l-13.4-23.16c-.32-.55-.76-1.18-1.3-1.88a23.97 23.97 0 0 0-4.34-4.46c-4.66-3.62-9.44-4.21-14.37-1.78-4.56 3.04-6.43 7.48-5.62 13.31.27 1.95.83 3.95 1.69 5.99.34.81.66 1.5.96 2.07l39.93 69.07c-28.8-11.07-39.34-4.66-31.64 19.22 30.3 6.32 58.05 23.56 83.27 51.71l67.37-39.1c-1.51-8.46-4.1-19.63-7.75-33.5-3.65-13.86-11.4-32.36-23.26-55.5l-5.4-9.47a19.6 19.6 0 0 0-1.56-2.27 22.34 22.34 0 0 0-4.46-4.39c-5.15-3.78-10.58-4.02-16.3-.72-3.31 1.91-5.86 3.3-7.63 4.15l-1.66.71 3.5 6.08.14.23 7.3 12.68 1.69 2.86m.9 1.7l-2.62-4.55" stroke="#000" stroke-width="8" stroke-linecap="round" stroke-linejoin="round"/></g></svg>